<svg width="25" height="24" viewBox="0 0 25 24" fill="none" xmlns="http://www.w3.org/2000/svg">
<path d="M19.583 4H17.583V3C17.583 2.73478 17.4777 2.48043 17.2901 2.29289C17.1026 2.10536 16.8482 2 16.583 2C16.3178 2 16.0634 2.10536 15.8759 2.29289C15.6884 2.48043 15.583 2.73478 15.583 3V4H9.58301V3C9.58301 2.73478 9.47765 2.48043 9.29011 2.29289C9.10258 2.10536 8.84822 2 8.58301 2C8.31779 2 8.06344 2.10536 7.8759 2.29289C7.68836 2.48043 7.58301 2.73478 7.58301 3V4H5.58301C4.78736 4 4.0243 4.31607 3.46169 4.87868C2.89908 5.44129 2.58301 6.20435 2.58301 7V19C2.58301 19.7956 2.89908 20.5587 3.46169 21.1213C4.0243 21.6839 4.78736 22 5.58301 22H19.583C20.3787 22 21.1417 21.6839 21.7043 21.1213C22.2669 20.5587 22.583 19.7956 22.583 19V7C22.583 6.20435 22.2669 5.44129 21.7043 4.87868C21.1417 4.31607 20.3787 4 19.583 4ZM20.583 19C20.583 19.2652 20.4777 19.5196 20.2901 19.7071C20.1026 19.8946 19.8482 20 19.583 20H5.58301C5.31779 20 5.06344 19.8946 4.8759 19.7071C4.68836 19.5196 4.58301 19.2652 4.58301 19V12H20.583V19ZM20.583 10H4.58301V7C4.58301 6.73478 4.68836 6.48043 4.8759 6.29289C5.06344 6.10536 5.31779 6 5.58301 6H7.58301V7C7.58301 7.26522 7.68836 7.51957 7.8759 7.70711C8.06344 7.89464 8.31779 8 8.58301 8C8.84822 8 9.10258 7.89464 9.29011 7.70711C9.47765 7.51957 9.58301 7.26522 9.58301 7V6H15.583V7C15.583 7.26522 15.6884 7.51957 15.8759 7.70711C16.0634 7.89464 16.3178 8 16.583 8C16.8482 8 17.1026 7.89464 17.2901 7.70711C17.4777 7.51957 17.583 7.26522 17.583 7V6H19.583C19.8482 6 20.1026 6.10536 20.2901 6.29289C20.4777 6.48043 20.583 6.73478 20.583 7V10Z" fill="black"/>
</svg>
