<svg width="25" height="24" viewBox="0 0 25 24" fill="none" xmlns="http://www.w3.org/2000/svg">
<path d="M7.58301 17H9.58301V7H7.58301V17ZM15.583 15H17.583V7H15.583V15ZM11.583 12H13.583V7H11.583V12ZM5.58301 21C5.03301 21 4.56234 20.8043 4.17101 20.413C3.77967 20.0217 3.58367 19.5507 3.58301 19V5C3.58301 4.45 3.77901 3.97933 4.17101 3.588C4.56301 3.19667 5.03367 3.00067 5.58301 3H19.583C20.133 3 20.604 3.196 20.996 3.588C21.388 3.98 21.5837 4.45067 21.583 5V19C21.583 19.55 21.3873 20.021 20.996 20.413C20.6047 20.805 20.1337 21.0007 19.583 21H5.58301ZM5.58301 19H19.583V5H5.58301V19Z" fill="black"/>
</svg>
