<svg width="25" height="24" viewBox="0 0 25 24" fill="none" xmlns="http://www.w3.org/2000/svg">
<path d="M20.258 20.375L20.958 19.675L19.083 17.8V15H18.083V18.2L20.258 20.375ZM5.58301 21C5.03301 21 4.56234 20.8043 4.17101 20.413C3.77967 20.0217 3.58367 19.5507 3.58301 19V5C3.58301 4.45 3.77901 3.97933 4.17101 3.588C4.56301 3.19667 5.03367 3.00067 5.58301 3H19.583C20.133 3 20.604 3.196 20.996 3.588C21.388 3.98 21.5837 4.45067 21.583 5V11.7C21.2663 11.55 20.9413 11.421 20.608 11.313C20.2747 11.205 19.933 11.1257 19.583 11.075V5H5.58301V19H11.633C11.683 19.3667 11.7623 19.7167 11.871 20.05C11.9797 20.3833 12.1087 20.7 12.258 21H5.58301ZM5.58301 18V19V5V11.075V11V18ZM7.58301 17H11.658C11.708 16.65 11.7873 16.3083 11.896 15.975C12.0047 15.6417 12.1253 15.3167 12.258 15H7.58301V17ZM7.58301 13H13.683C14.2163 12.5 14.8123 12.0833 15.471 11.75C16.1297 11.4167 16.8337 11.1917 17.583 11.075V11H7.58301V13ZM7.58301 9H17.583V7H7.58301V9ZM18.583 23C17.1997 23 16.0207 22.5123 15.046 21.537C14.0713 20.5617 13.5837 19.3827 13.583 18C13.5823 16.6173 14.07 15.4383 15.046 14.463C16.022 13.4877 17.201 13 18.583 13C19.965 13 21.1443 13.4877 22.121 14.463C23.0977 15.4383 23.585 16.6173 23.583 18C23.581 19.3827 23.0933 20.562 22.12 21.538C21.1467 22.514 19.9677 23.0013 18.583 23Z" fill="black"/>
</svg>
