<svg width="25" height="24" viewBox="0 0 25 24" fill="none" xmlns="http://www.w3.org/2000/svg">
<g clip-path="url(#clip0_212_3767)">
<path d="M22.3687 17H1.79729C1.34264 17 0.906601 16.7893 0.58511 16.4142C0.263619 16.0391 0.0830078 15.5304 0.0830078 15V9C0.0830078 8.46957 0.263619 7.96086 0.58511 7.58579C0.906601 7.21071 1.34264 7 1.79729 7H22.3687C22.8234 7 23.2594 7.21071 23.5809 7.58579C23.9024 7.96086 24.083 8.46957 24.083 9V15C24.083 15.5304 23.9024 16.0391 23.5809 16.4142C23.2594 16.7893 22.8234 17 22.3687 17ZM1.79729 9V15H22.3687V9H1.79729Z" fill="black"/>
<path d="M4.08301 11H14.083V13H4.08301V11Z" fill="black"/>
</g>
<defs>
<clipPath id="clip0_212_3767">
<rect width="24" height="24" fill="white" transform="translate(0.0830078)"/>
</clipPath>
</defs>
</svg>
