<svg width="25" height="24" viewBox="0 0 25 24" fill="none" xmlns="http://www.w3.org/2000/svg">
<path d="M16.583 14.25H19.583C19.9808 14.25 20.3624 14.092 20.6437 13.8107C20.925 13.5294 21.083 13.1478 21.083 12.75V9.75C21.083 9.35218 20.925 8.97064 20.6437 8.68934C20.3624 8.40804 19.9808 8.25 19.583 8.25H16.583C16.1852 8.25 15.8037 8.40804 15.5223 8.68934C15.241 8.97064 15.083 9.35218 15.083 9.75V10.5H8.33301V7.5H9.08301C9.48083 7.5 9.86236 7.34196 10.1437 7.06066C10.425 6.77936 10.583 6.39782 10.583 6V3C10.583 2.60218 10.425 2.22064 10.1437 1.93934C9.86236 1.65804 9.48083 1.5 9.08301 1.5H6.08301C5.68518 1.5 5.30365 1.65804 5.02235 1.93934C4.74104 2.22064 4.58301 2.60218 4.58301 3V6C4.58301 6.39782 4.74104 6.77936 5.02235 7.06066C5.30365 7.34196 5.68518 7.5 6.08301 7.5H6.83301V18C6.83301 18.5967 7.07006 19.169 7.49202 19.591C7.91397 20.0129 8.48627 20.25 9.08301 20.25H15.083V21C15.083 21.3978 15.241 21.7794 15.5223 22.0607C15.8037 22.342 16.1852 22.5 16.583 22.5H19.583C19.9808 22.5 20.3624 22.342 20.6437 22.0607C20.925 21.7794 21.083 21.3978 21.083 21V18C21.083 17.6022 20.925 17.2206 20.6437 16.9393C20.3624 16.658 19.9808 16.5 19.583 16.5H16.583C16.1852 16.5 15.8037 16.658 15.5223 16.9393C15.241 17.2206 15.083 17.6022 15.083 18V18.75H9.08301C8.8841 18.75 8.69333 18.671 8.55268 18.5303C8.41203 18.3897 8.33301 18.1989 8.33301 18V12H15.083V12.75C15.083 13.1478 15.241 13.5294 15.5223 13.8107C15.8037 14.092 16.1852 14.25 16.583 14.25ZM6.08301 3H9.08301V6H6.08301V3ZM16.583 18H19.583V21H16.583V18ZM16.583 9.75H19.583V12.75H16.583V9.75Z" fill="black"/>
</svg>
